<svg xmlns="http://www.w3.org/2000/svg" viewBox="0 0 378 567"><defs><style>.cls-1{fill:#25798c;}.cls-2,.cls-9{fill:#fff;}.cls-2{opacity:0.37;}.cls-3{isolation:isolate;}.cls-4{fill:#fbfbfb;}.cls-5{fill:#d4d4d4;}.cls-6{fill:#e1e1e1;}.cls-7{fill:#161616;}.cls-8{fill:#191919;}.cls-10{opacity:0.53;}</style></defs><title>login-artwork</title><g id="Connected_background" data-name="Connected background"><path class="cls-1" d="M684.35,567V0h-378V1.26c0,101.85,93.09,145.74,52.83,290.62-46.83,168.55,14,176.22,9.12,275.12Z" transform="translate(-306.35)"/></g><g id="Connected"><path class="cls-2" d="M684.35,307.63c-8.82,78.53-75.62,139.78-156.46,139.78-86.83,0-157.46-70.64-157.46-157.46s70.63-157.47,157.46-157.47c80.84,0,147.64,61.25,156.46,139.78V186.82a187.32,187.32,0,0,0-317.25,6.85c4.08,27.48,2.93,59.17-7.92,98.21-5.06,18.22-8.86,34.55-11.63,49.33,22.36,78.53,94.74,136.2,180.34,136.2a187.44,187.44,0,0,0,156.46-84.33Z" transform="translate(-306.35)"/><g id="cube"><g class="cls-3"><polygon class="cls-4" points="307.61 203.21 309.29 335.34 171.26 320.83 169.58 188.71 307.61 203.21"/><polygon class="cls-5" points="169.58 188.71 171.26 320.83 133.78 379.93 132.1 247.81 169.58 188.71"/><polygon class="cls-4" points="270.12 262.32 271.81 394.44 133.78 379.93 132.1 247.81 270.12 262.32"/><polygon class="cls-5" points="307.61 203.21 309.29 335.34 271.81 394.44 270.12 262.32 307.61 203.21"/><path class="cls-6" d="M475.23,188.19,615.18,202.9l-38,59.93-140-14.71Zm101.24,74.13L614,203.21l-138-14.5-37.48,59.1,138,14.51" transform="translate(-306.35)"/><polygon class="cls-6" points="307.61 203.21 270.12 262.32 132.1 247.81 169.58 188.71 307.61 203.21"/><polygon class="cls-4" points="270.83 262.83 272.51 394.95 132.55 380.25 130.87 248.12 270.83 262.83"/><polygon class="cls-5" points="308.83 202.9 310.51 335.02 272.51 394.95 270.83 262.83 308.83 202.9"/></g><g id="icon"><path class="cls-7" d="M506.16,237.66a17.27,17.27,0,0,1-4.68.23L471.17,235c-2.33-.23-4.14-1-5.08-2.09a2.91,2.91,0,0,1,.1-3.85l13-17.7a10.78,10.78,0,0,1,5.21-3.36,17.92,17.92,0,0,1,7.27-.9L522,210c2.33.23,4.13,1,5.07,2.09a2.91,2.91,0,0,1-.09,3.85l-13,17.7a10.73,10.73,0,0,1-5.21,3.36A17.46,17.46,0,0,1,506.16,237.66Zm-3.39-1.53a11.51,11.51,0,0,0,4.76-.59,7,7,0,0,0,3.41-2.2l13-17.7a1.91,1.91,0,0,0,.06-2.52,4.93,4.93,0,0,0-3.32-1.37l-30.31-2.92a11.51,11.51,0,0,0-4.76.59,7,7,0,0,0-3.42,2.2l-13,17.7a1.9,1.9,0,0,0-.06,2.52,4.89,4.89,0,0,0,3.32,1.37Z" transform="translate(-306.35)"/><g id="Waves"><path class="cls-7" d="M476.66,224.55c.49-.87,2.43-1.35,3.51-.86a5.28,5.28,0,0,1,2.83,2.46c.72,1.57.29,3.2-1.31,4.9a3.2,3.2,0,0,1-2.15.86,1.73,1.73,0,0,1-1.72-.62.62.62,0,0,1,0-.31,1.42,1.42,0,0,1,.37-.6c1.6-1.73,1.36-3.53-.67-4.63-.38-.21-.82-.38-.91-.65A.76.76,0,0,1,476.66,224.55Z" transform="translate(-306.35)"/><path class="cls-7" d="M507.94,222.43c.63,3.37-.34,6.81-3,10.34a3.32,3.32,0,0,1-2.92.95c-1-.15-1.35-.7-.89-1.31a14.58,14.58,0,0,0,2.43-4.7,9.34,9.34,0,0,0-.14-5.85,12.58,12.58,0,0,0-5.57-6.29c-.68-.43-.48-1.13.45-1.6a3.28,3.28,0,0,1,2.92-.11,14.46,14.46,0,0,1,5.7,5.79A11.89,11.89,0,0,1,507.94,222.43Z" transform="translate(-306.35)"/><path class="cls-7" d="M499.54,224c.51,2.67-.28,5.4-2.42,8.18a3,3,0,0,1-2.18,1c-1.41.09-2.21-.57-1.62-1.34a10.67,10.67,0,0,0,1.94-3.7c.95-3.64-.49-6.69-4.38-9.1-.42-.25-.58-.56-.38-1a2.24,2.24,0,0,1,1.56-1,2.87,2.87,0,0,1,2.09.15,13.05,13.05,0,0,1,3.61,3A8.52,8.52,0,0,1,499.54,224Z" transform="translate(-306.35)"/><path class="cls-7" d="M491.16,225.48a7.39,7.39,0,0,1-1.92,6.08,3.38,3.38,0,0,1-2.9.91c-1-.16-1.35-.73-.85-1.36a6.85,6.85,0,0,0,1.52-3c.45-2.34-.59-4.27-3.17-5.78-.42-.25-.63-.55-.45-.94a2.25,2.25,0,0,1,1.63-1,2.87,2.87,0,0,1,2,.16,9.22,9.22,0,0,1,3.1,2.65A6.22,6.22,0,0,1,491.16,225.48Z" transform="translate(-306.35)"/></g></g><g id="QR_-_https:_a.wisertag.com_demo" data-name="QR - https://a.wisertag.com/demo"><path class="cls-8" d="M528,329.59l.1,8.49,22.09,2.34.05,4.27-4.11-.43.09,8.65,4.29.45-.07-.07.09,8.45-4.24-.45.09,8.68,4.32.46-.07-.08,0,4.34.07-.07L533,372.74l0,4.18-4.38-.47,0-4.08-4.43-.47,0-4.21,17.47,1.85-.09-8.52-8.6-.91.05,4.09-13.36-1.42,0,4.21L515,366.5l.05,4.41.07-.06-13.27-1.41,0-4.09-8.9-.94.09,8.22-4.35-.46L488.46,351l13.2,1.4-.07-.07.05,4.41,4.56.48,0,4,8.61.91,0-4.2-4.31-.45-.09-8.49-4.42-.47.07.07-.05-4.22,8.89.94,0-4.37-.07.05,4.5.41c0,1.38,0,2.76.05,4.15l4.24.45-.05-4.09-4.31-.45,0-4.39,4.37.46,0-4.21-17.7-1.87.07.07,0-4.27L528,329.66Zm-8.54,24.66.05,4.15,4.24.45-.05-4.08-4.31-.46,0-4.14-4.23-.45,0,4.08Zm8.9.84,13.11,1.38L541.29,344l-13.1-1.39Zm-35.38,4.79,4.18.44-.05-4-4.17-.44Z" transform="translate(-306.35)"/><path class="cls-8" d="M479.26,332.94l-4.42-.47.05,4.18-8.9-.94,0-4.07-4.35-.46,0-4.28,4.12.44-.09-8.45-8.71-.92.18,16.82-4.27-.46-.23-21.19,8.59.91,0-4.2-4.28-.46-.05-4.4-.07.05,9,.95-.07-.07.09,8.6L488,316.88l-.07-.07,0,4.25-17.6-1.87.05,4.13,17.52,1.86c0-1.53,0-2.86,0-4.19l4.61.49,0-4.19-.07.06,9,.95-.07-.08,0,4.39-4.44-.47,0,4.21.07-.05-4.51-.48.05,4.33.06-.06-13.4-1.42.05,4.33Z" transform="translate(-306.35)"/><path class="cls-8" d="M563,303.41l-30.73-3.26L532,270.49l30.73,3.26Zm-26.36-7.13,21.89,2.32-.22-21.06-21.9-2.32Z" transform="translate(-306.35)"/><path class="cls-8" d="M483.94,371.79l-30.74-3.26-.32-29.65,30.74,3.26Zm-4.5-4.8-.22-21-21.9-2.32.23,21Z" transform="translate(-306.35)"/><path class="cls-8" d="M482.84,265.33l.31,29.56-30.76-3.26-.32-29.56ZM456.71,287.8l21.89,2.32-.23-21.05-21.89-2.32Z" transform="translate(-306.35)"/><path class="cls-8" d="M500.86,284.15l4.41.47.05,4.1,8.82.94,0-4.1,4.6.49-.07-.08,0,4.23,8.88.94.13,12.76,4.51.68.09,8.4,4.37.46-.08-.07.05,4.34-8.78-.93.07.08,0-4.14-4.51-.48,0,4.14.07-.06-4.57-.49,0-4.26-4.39-.47.07.07,0-4.4-4.35-.46-.05-4.21,13,1.38L523,295.1l-4.16-.44-.18,4-4.46-.47,0-4-4.37-.46,0,4.1-4.42-.46.07.07,0-4.33-4.51-.48.07.07-.1-8.6Z" transform="translate(-306.35)"/><path class="cls-8" d="M479,303.14l-.05-4.22,13.33,1.41-.05-4.38-.07.06,4.51.48-.05-4.34-.07.06,4.52.48-.07-.07,0,4.33,4.51.48-.07-.07.05,4.37-8.88-.94,0,4.23.07-.06L488,304l.05,4.4,4.25.45.09,8.47.07-.06-4.52-.48.07.07,0-4.37-8.89-.95,0-4.22-.07.06,4.31.46-.05-4.34-4.31-.45Z" transform="translate(-306.35)"/><path class="cls-8" d="M527.83,316.78l.09,8.6.07-.05-17.92-1.9-.09-8.38-4.38-.46,0,4.1-4.42-.47.07.08-.05-4.4-4.44-.47-.09-8.47-.07.06,4.58.48,0,4.27,13.26,1.4-.07-.07.09,8.41,9,.95,0-4.14-.07.06,4.51.48Z" transform="translate(-306.35)"/><path class="cls-8" d="M523.19,282.33l-.27-4.22-13.16-1.39.05,3.94-4.41-.46-.13-12.5,4.22.45.24,4,8.68.92,0-4,8.87.94.13,12.7-4.25-.45Z" transform="translate(-306.35)"/><path class="cls-8" d="M527.92,325.38l4.41.47,0-4.17L550,323.56l0,4-4.26-.45.09,8.51-4.36-.46,0-4-4.46-.47-.18,4-4.23-.44,0-4.19-4.59-.48.08.07,0-4.33Z" transform="translate(-306.35)"/><path class="cls-8" d="M456.78,305l-4.32-.46-.09-8.36,22,2.34.05,4.15.07-.06-4.56-.48,0,4.27-4.39-.47.07.07,0-4.14-9-1,0,4.14Z" transform="translate(-306.35)"/><path class="cls-8" d="M550.47,353.36l0-4.24,8.7.93-.09-8.53-4.34-.46c0-1.54,0-2.91,0-4.29l-.07.07,8.8.93.19,16.91-13.18-1.39Z" transform="translate(-306.35)"/><path class="cls-8" d="M492.18,296l-4.32-.46-.09-8.42,4.09.44,0-4.3-4.12-.43-.05-4.15,13.16,1.4c0,1.34,0,2.73.05,4.12l.06-.06-4.51-.48.09,8.6.07-.06-4.51-.48.05,4.34Z" transform="translate(-306.35)"/><path class="cls-8" d="M559.47,371.29l0,4.25,4.35.46,0,4.14-13.16-1.39c0-1.35,0-2.74,0-4.13l-.07.07,4.51.47,0-4.33-.06.06,4.51.48Z" transform="translate(-306.35)"/><path class="cls-8" d="M545.5,310.14l.09,8.4-4.28-.46-.27-4-4.47-.68.07.07c0-2.75-.06-5.49-.09-8.36l4.39.46,0,4.18,4.59.49Z" transform="translate(-306.35)"/><path class="cls-8" d="M555.06,366.63l0-4.14,8.68.92.09,8.34-4.32-.46.08.08,0-4.34-4.51-.48Z" transform="translate(-306.35)"/><path class="cls-8" d="M488,338.31l4.43.47,0,4.05,4.43.47.05,4.23-8.79-.93c0-2.76-.06-5.56-.09-8.36Z" transform="translate(-306.35)"/><path class="cls-8" d="M554.7,332.48l-.09-8.4,8.7.92,0,4-4.19-.44,0,4.29-4.57-.49Z" transform="translate(-306.35)"/><path class="cls-8" d="M514.85,341,506,340l-.05-4.26-.07.05,8.88.94,0,4.27Z" transform="translate(-306.35)"/><path class="cls-8" d="M479.19,333l8.81.94c0,1.59,0,3,.05,4.36l.06-.06-8.81-.93c0-1.6,0-3,0-4.37Z" transform="translate(-306.35)"/><path class="cls-8" d="M501.43,331l-4.51-.48.07.08-.05-4.33-.07.05,4.44.48.05,4.26Z" transform="translate(-306.35)"/><path class="cls-8" d="M554.63,332.4c0,1.48,0,3,0,4.43l.07-.06-4.25-.45,0-4.3,4.34.46Z" transform="translate(-306.35)"/><path class="cls-8" d="M496.92,330.55l0,4.15-4.37-.47,0-4.14-.06.06,4.51.48Z" transform="translate(-306.35)"/><path class="cls-8" d="M505.92,335.78l-4.45-.48c0-1.48,0-2.88,0-4.27l-.07.06,4.51.48-.07-.07.05,4.33Z" transform="translate(-306.35)"/><path class="cls-8" d="M518.69,286.05l-.05-4.21,4.55.49-.08-.07c0,1.31,0,2.63,0,4.19l-4.54-.48Z" transform="translate(-306.35)"/><path class="cls-8" d="M554.36,315.49l0,4-4.17-.44,0-4Z" transform="translate(-306.35)"/><path class="cls-8" d="M558.84,311.62l4.3.45,0,4.08L559,315.7l-.05-4.14Z" transform="translate(-306.35)"/><path class="cls-8" d="M500.65,271.42l.05,4-4.2-.44-.05-4Z" transform="translate(-306.35)"/><path class="cls-8" d="M491.71,274.53l-4.09-.43,0-4.06,4.09.44Z" transform="translate(-306.35)"/><path class="cls-8" d="M501.66,352.44l-.05-4.27,4.45.47-.07-.07,0,4.27-4.44-.47Z" transform="translate(-306.35)"/><path class="cls-8" d="M474.43,302.66l4.52.48-.08-.07.05,4.33.07-.06-4.45-.47,0-4.27Z" transform="translate(-306.35)"/><path class="cls-8" d="M558.91,311.56l-4.31-.46,0-4.09,4.24.45c0,1.39,0,2.77,0,4.16Z" transform="translate(-306.35)"/><path class="cls-8" d="M545.57,310.21l0-4.14,4.25.45,0,4.07-4.32-.45Z" transform="translate(-306.35)"/><path class="cls-8" d="M550.66,370.43l0-4.27,4.44.47-.07-.08,0,4.34.06-.06-4.51-.48Z" transform="translate(-306.35)"/><path class="cls-8" d="M515.09,370.91l4.31.46.05,4.08-4.24-.45c0-1.38,0-2.77-.05-4.15Z" transform="translate(-306.35)"/><path class="cls-8" d="M532.78,347.22l4.1.44,0,4.06-4.11-.43Z" transform="translate(-306.35)"/><path class="cls-8" d="M554.06,293.92l-13-1.37-.13-12.6,13,1.38Z" transform="translate(-306.35)"/><path class="cls-8" d="M475,362.27l-13-1.38-.13-12.56,13,1.38Z" transform="translate(-306.35)"/><path class="cls-8" d="M474,272.91l.14,12.51-13-1.38L461,271.53Z" transform="translate(-306.35)"/></g><path d="M539.34,235l-3.5-.37-.05-13.86h-.1l-.41.72q-1.2,2.08-2.33,3.8l-5.56,8.45-2.59-.27,10.7-16.26,3.47.37.07,13.79h.07l1.13-1.87c.66-1.08,1.19-1.92,1.58-2.52l5.62-8.51,2.61.28Z" transform="translate(-306.35)"/><path d="M546.78,235.77l-2.83-.3,10.71-16.26,9.85,1L563,222.5l-7-.74-3.35,5.08,6.58.7-1.48,2.25-6.58-.69Z" transform="translate(-306.35)"/><path d="M573.76,223.43a7.87,7.87,0,0,0-4.94,1.21,13.72,13.72,0,0,0-4.36,4.33q-2,3-1.62,4.67t2.91,2a12.37,12.37,0,0,0,2.28,0c.79-.06,1.63-.16,2.51-.3l-1.5,2.28a17,17,0,0,1-5.13.23q-3.84-.4-4.46-2.79c-.43-1.58.25-3.72,2-6.4a18.51,18.51,0,0,1,3.92-4.33,14.86,14.86,0,0,1,4.8-2.61,12.38,12.38,0,0,1,5.1-.54,7.89,7.89,0,0,1,4.25,1.57l-2.48,2.1a9.27,9.27,0,0,0-1.42-.88A5.19,5.19,0,0,0,573.76,223.43Z" transform="translate(-306.35)"/></g><g id="logo-white"><path class="cls-9" d="M558.43,30.41s.74,11.49,3,11.49c1.84,0,1.09-11.49,4.51-11.49s2.59,11.48,4.52,11.48c2.09,0,3.1-11.48,3.1-11.48h2.5s-.77,14.23-5.6,14.23c-4.24,0-3.21-10.31-4.52-10.31s-.17,10.31-4.51,10.31c-4.85,0-5.6-14.23-5.6-14.23Z" transform="translate(-306.35)"/><path class="cls-9" d="M581.42,26.49a1.57,1.57,0,0,1-3.14,0,1.54,1.54,0,0,1,1.58-1.58A1.51,1.51,0,0,1,581.42,26.49ZM578.6,44.33V30.41h2.53V44.33Z" transform="translate(-306.35)"/><path class="cls-9" d="M584.57,41.74a6.66,6.66,0,0,0,3.34,1c1.84,0,2.71-.92,2.71-2.07s-.72-1.87-2.59-2.56c-2.51-.89-3.69-2.28-3.69-3.94,0-2.25,1.82-4.09,4.81-4.09a6.92,6.92,0,0,1,3.42.86l-.63,1.84a5.47,5.47,0,0,0-2.85-.8c-1.5,0-2.33.86-2.33,1.9s.83,1.67,2.65,2.36c2.41.92,3.65,2.13,3.65,4.2,0,2.44-1.9,4.17-5.21,4.17a7.9,7.9,0,0,1-3.91-.95Z" transform="translate(-306.35)"/><path class="cls-9" d="M597.31,37.83c.06,3.42,2.24,4.83,4.78,4.83a9,9,0,0,0,3.85-.72l.43,1.82a11.3,11.3,0,0,1-4.63.86c-4.29,0-6.85-2.82-6.85-7s2.48-7.51,6.53-7.51c4.55,0,5.76,4,5.76,6.56a9.16,9.16,0,0,1-.09,1.18ZM604.73,36c0-1.61-.66-4.12-3.51-4.12-2.56,0-3.68,2.36-3.88,4.12Z" transform="translate(-306.35)"/><path class="cls-9" d="M609.9,34.75c0-1.64,0-3.05-.11-4.34H612l.09,2.73h.11a4.19,4.19,0,0,1,3.86-3.05,2.63,2.63,0,0,1,.72.09v2.38a4.34,4.34,0,0,0-.86-.08c-1.79,0-3,1.35-3.4,3.25a6.87,6.87,0,0,0-.11,1.18v7.42H609.9Z" transform="translate(-306.35)"/><path class="cls-9" d="M623.05,26.41v4h3.62v1.92h-3.62v7.51c0,1.73.49,2.71,1.9,2.71a6,6,0,0,0,1.47-.17l.11,1.89a6,6,0,0,1-2.24.35,3.53,3.53,0,0,1-2.74-1.06c-.72-.75-1-2-1-3.63v-7.6h-2.16V30.41h2.16V27.07Z" transform="translate(-306.35)"/><path class="cls-9" d="M637.23,44.33l-.2-1.75H637a5.21,5.21,0,0,1-4.26,2.07,4,4,0,0,1-4.26-4c0-3.37,3-5.21,8.37-5.18v-.29A2.87,2.87,0,0,0,633.64,32,6.88,6.88,0,0,0,630,33l-.57-1.67A8.62,8.62,0,0,1,634,30.09c4.26,0,5.29,2.91,5.29,5.7V41a19.9,19.9,0,0,0,.23,3.34Zm-.37-7.1c-2.76-.06-5.9.43-5.9,3.13a2.24,2.24,0,0,0,2.39,2.42,3.46,3.46,0,0,0,3.36-2.33,2.57,2.57,0,0,0,.15-.81Z" transform="translate(-306.35)"/><path class="cls-9" d="M654.56,30.41c0,1-.11,2.13-.11,3.82v8.09c0,3.19-.63,5.15-2,6.36a7.39,7.39,0,0,1-5.06,1.67,9,9,0,0,1-4.63-1.16l.63-1.92a7.91,7.91,0,0,0,4.09,1.09c2.59,0,4.48-1.35,4.48-4.86V41.94h-.05a5,5,0,0,1-4.43,2.33c-3.46,0-5.93-2.93-5.93-6.79,0-4.71,3.08-7.39,6.27-7.39a4.65,4.65,0,0,1,4.35,2.42h.05l.12-2.1ZM652,35.9a3.48,3.48,0,0,0-.15-1.15,3.64,3.64,0,0,0-3.54-2.67c-2.41,0-4.14,2-4.14,5.26,0,2.73,1.38,5,4.11,5a3.69,3.69,0,0,0,3.51-2.59,4.23,4.23,0,0,0,.21-1.35Z" transform="translate(-306.35)"/><g id="icon-2" data-name="icon"><path class="cls-9" d="M533,57.31a5.87,5.87,0,0,1-2.88-.75L512,46.53a5.95,5.95,0,0,1-2.32-8.1l10-18.1a6,6,0,0,1,8.1-2.33L545.9,28a6,6,0,0,1,2.32,8.1l-10,18.1A6,6,0,0,1,533,57.31Zm-1.89-2.55a3.85,3.85,0,0,0,3,.34,3.92,3.92,0,0,0,2.34-1.86l10-18.11a3.9,3.9,0,0,0-1.53-5.3l-18.1-10a3.9,3.9,0,0,0-3-.34,3.86,3.86,0,0,0-2.34,1.86l-10,18.11A3.92,3.92,0,0,0,513,44.74Z" transform="translate(-306.35)"/><g id="Waves-2" data-name="Waves"><path class="cls-9" d="M516.57,35.41a1.3,1.3,0,0,1,2.24-.26,7.36,7.36,0,0,1,1.43,3.52,7.58,7.58,0,0,1-1.38,5.51,1.29,1.29,0,0,1-1.41.56,1.26,1.26,0,0,1-1-1.11,1.22,1.22,0,0,1,0-.38,1.81,1.81,0,0,1,.3-.63,5.06,5.06,0,0,0,.14-5.62,2.23,2.23,0,0,1-.48-1A1.48,1.48,0,0,1,516.57,35.41Z" transform="translate(-306.35)"/><path class="cls-9" d="M535.86,39.69a23.33,23.33,0,0,1-3,11.57A1.3,1.3,0,1,1,530.55,50a21.16,21.16,0,0,0,2-5,21.06,21.06,0,0,0-2-15.59A1.3,1.3,0,0,1,531,27.6a1.28,1.28,0,0,1,1.79.5,22.59,22.59,0,0,1,2.79,8.08A28.47,28.47,0,0,1,535.86,39.69Z" transform="translate(-306.35)"/><path class="cls-9" d="M530.57,39.68a18.11,18.11,0,0,1-2.44,9.14,1.3,1.3,0,1,1-2.28-1.26,14.84,14.84,0,0,0,1.63-4,15.56,15.56,0,0,0-1.59-11.71,1.33,1.33,0,0,1-.12-1.22,1.3,1.3,0,0,1,2.32-.17,17.79,17.79,0,0,1,1.84,4.36A18.16,18.16,0,0,1,530.57,39.68Z" transform="translate(-306.35)"/><path class="cls-9" d="M525.29,39.66a13,13,0,0,1-1.89,6.76,1.3,1.3,0,1,1-2.23-1.33,10.34,10.34,0,0,0,0-10.72,1.34,1.34,0,0,1-.16-1.21,1.3,1.3,0,0,1,2.33-.23,12.73,12.73,0,0,1,1.57,3.81A13.94,13.94,0,0,1,525.29,39.66Z" transform="translate(-306.35)"/></g></g></g><g id="stars" class="cls-10"><g id="star"><ellipse class="cls-9" cx="630.4" cy="481.61" rx="20.3" ry="1.5" transform="translate(-456.92 621.04) rotate(-47.5)"/><ellipse class="cls-9" cx="630.4" cy="481.61" rx="1.5" ry="20.3" transform="translate(-456.92 621.04) rotate(-47.5)"/><ellipse class="cls-9" cx="630.19" cy="481.84" rx="10.9" ry="0.81" transform="translate(-326.78 27.97) rotate(-2.5)"/><ellipse class="cls-9" cx="630.19" cy="481.84" rx="0.81" ry="10.9" transform="translate(-326.78 27.97) rotate(-2.5)"/></g><g id="star-2" data-name="star"><ellipse class="cls-9" cx="596.22" cy="173.11" rx="20.3" ry="1.5" transform="translate(-240.55 495.76) rotate(-47.5)"/><ellipse class="cls-9" cx="596.22" cy="173.11" rx="1.5" ry="20.3" transform="translate(-240.55 495.76) rotate(-47.5)"/><ellipse class="cls-9" cx="596.01" cy="173.34" rx="10.9" ry="0.81" transform="translate(-313.35 26.18) rotate(-2.5)"/><ellipse class="cls-9" cx="596.01" cy="173.34" rx="0.81" ry="10.9" transform="translate(-313.35 26.18) rotate(-2.5)"/></g><g id="star-3" data-name="star"><ellipse class="cls-9" cx="448.65" cy="140.43" rx="27.64" ry="2.05" transform="translate(-264.33 376.35) rotate(-47.5)"/><ellipse class="cls-9" cx="448.65" cy="140.43" rx="2.05" ry="27.64" transform="translate(-264.33 376.35) rotate(-47.5)"/><ellipse class="cls-9" cx="448.37" cy="140.74" rx="14.84" ry="1.1" transform="translate(-312.07 19.71) rotate(-2.5)"/><ellipse class="cls-9" cx="448.37" cy="140.74" rx="1.1" ry="14.84" transform="translate(-312.07 19.71) rotate(-2.5)"/></g><g id="star-4" data-name="star"><ellipse class="cls-9" cx="401.3" cy="424.69" rx="20.3" ry="1.5" transform="translate(-489.28 433.66) rotate(-47.5)"/><ellipse class="cls-9" cx="401.3" cy="424.69" rx="1.5" ry="20.3" transform="translate(-489.28 433.66) rotate(-47.5)"/><ellipse class="cls-9" cx="401.09" cy="424.92" rx="10.9" ry="0.81" transform="translate(-324.52 17.91) rotate(-2.5)"/><ellipse class="cls-9" cx="401.09" cy="424.92" rx="0.81" ry="10.9" transform="translate(-324.52 17.91) rotate(-2.5)"/></g><g id="star-5" data-name="star"><ellipse class="cls-9" cx="532.95" cy="419.16" rx="27.78" ry="2.06" transform="translate(-442.49 528.93) rotate(-47.5)"/><ellipse class="cls-9" cx="532.95" cy="419.16" rx="2.06" ry="27.78" transform="translate(-442.49 528.93) rotate(-47.5)"/><ellipse class="cls-9" cx="532.67" cy="419.47" rx="14.92" ry="1.11" transform="translate(-324.15 23.65) rotate(-2.5)"/><ellipse class="cls-9" cx="532.67" cy="419.47" rx="1.11" ry="14.92" transform="translate(-324.15 23.65) rotate(-2.5)"/></g><g id="star-6" data-name="star"><ellipse class="cls-9" cx="653.32" cy="77.13" rx="20.3" ry="1.5" transform="translate(-151.26 506.72) rotate(-47.5)"/><ellipse class="cls-9" cx="653.32" cy="77.13" rx="1.5" ry="20.3" transform="translate(-151.26 506.72) rotate(-47.5)"/><ellipse class="cls-9" cx="653.11" cy="77.36" rx="10.9" ry="0.81" transform="translate(-309.11 28.58) rotate(-2.5)"/><ellipse class="cls-9" cx="653.11" cy="77.36" rx="0.81" ry="10.9" transform="translate(-309.11 28.58) rotate(-2.5)"/></g><g id="star-7" data-name="star"><ellipse class="cls-9" cx="461.14" cy="542.37" rx="20.3" ry="1.5" transform="translate(-556.63 515.96) rotate(-47.5)"/><ellipse class="cls-9" cx="461.14" cy="542.37" rx="1.5" ry="20.3" transform="translate(-556.63 515.96) rotate(-47.5)"/><ellipse class="cls-9" cx="460.93" cy="542.59" rx="10.9" ry="0.81" transform="translate(-329.6 20.64) rotate(-2.5)"/><ellipse class="cls-9" cx="460.93" cy="542.59" rx="0.81" ry="10.9" transform="translate(-329.6 20.64) rotate(-2.5)"/></g><g id="star-8" data-name="star"><ellipse class="cls-9" cx="505.42" cy="24.42" rx="14.79" ry="1.1" transform="translate(-160.38 380.57) rotate(-47.5)"/><ellipse class="cls-9" cx="505.42" cy="24.42" rx="1.1" ry="14.79" transform="translate(-160.38 380.57) rotate(-47.5)"/><ellipse class="cls-9" cx="505.27" cy="24.58" rx="7.94" ry="0.59" transform="translate(-306.94 22.08) rotate(-2.5)"/><ellipse class="cls-9" cx="505.27" cy="24.58" rx="0.59" ry="7.94" transform="translate(-306.94 22.08) rotate(-2.5)"/></g><circle class="cls-9" cx="244.77" cy="94.63" r="4.82"/><circle class="cls-9" cx="307.35" cy="405.92" r="3.9"/><circle class="cls-9" cx="124.2" cy="72.82" r="2.33"/><circle class="cls-9" cx="232.91" cy="518.39" r="1.39"/></g></g></svg>