<svg xmlns="http://www.w3.org/2000/svg" viewBox="0 0 543.88 402.01"><defs><style>.cls-1{fill:none;stroke:#fff;stroke-miterlimit:10;stroke-width:30px;opacity:0.37;}.cls-2{opacity:0.53;}.cls-3{fill:#fff;}.cls-4{isolation:isolate;}.cls-5{fill:#fbfbfb;}.cls-6{fill:#d4d4d4;}.cls-7{fill:#e1e1e1;}.cls-8{fill:#161616;}.cls-9{fill:#191919;}</style></defs><title>login-artwork-mobile</title><g id="Layer_2" data-name="Layer 2"><g id="Mobile"><g id="Export"><circle class="cls-1" cx="270.65" cy="201.01" r="186.01"/><g id="stars" class="cls-2"><g id="star"><ellipse class="cls-3" cx="468.13" cy="99.46" rx="1.5" ry="20.3" transform="translate(78.54 377.42) rotate(-47.5)"/><ellipse class="cls-3" cx="468.13" cy="99.46" rx="20.3" ry="1.5" transform="translate(78.54 377.42) rotate(-47.5)"/><ellipse class="cls-3" cx="468.35" cy="99.67" rx="0.81" ry="10.9" transform="translate(-3.9 20.54) rotate(-2.5)"/><ellipse class="cls-3" cx="468.35" cy="99.67" rx="10.9" ry="0.81" transform="translate(-3.9 20.54) rotate(-2.5)"/></g><g id="star-2" data-name="star"><ellipse class="cls-3" cx="159.63" cy="133.64" rx="1.5" ry="20.3" transform="translate(-46.75 161.05) rotate(-47.5)"/><ellipse class="cls-3" cx="159.63" cy="133.64" rx="20.3" ry="1.5" transform="translate(-46.75 161.05) rotate(-47.5)"/><ellipse class="cls-3" cx="159.85" cy="133.85" rx="0.81" ry="10.9" transform="translate(-5.69 7.11) rotate(-2.5)"/><ellipse class="cls-3" cx="159.85" cy="133.85" rx="10.9" ry="0.81" transform="translate(-5.69 7.11) rotate(-2.5)"/></g><g id="star-3" data-name="star"><ellipse class="cls-3" cx="126.95" cy="281.21" rx="2.05" ry="27.64" transform="translate(-166.15 184.83) rotate(-47.5)"/><ellipse class="cls-3" cx="126.95" cy="281.21" rx="27.64" ry="2.05" transform="matrix(0.68, -0.74, 0.74, 0.68, -166.15, 184.83)"/><ellipse class="cls-3" cx="127.26" cy="281.49" rx="1.1" ry="14.84" transform="translate(-12.17 5.82) rotate(-2.5)"/><ellipse class="cls-3" cx="127.26" cy="281.49" rx="14.84" ry="1.1" transform="translate(-12.17 5.82) rotate(-2.5)"/></g><g id="star-4" data-name="star"><ellipse class="cls-3" cx="411.21" cy="328.56" rx="1.5" ry="20.3" transform="translate(-108.84 409.78) rotate(-47.5)"/><ellipse class="cls-3" cx="411.21" cy="328.56" rx="20.3" ry="1.5" transform="translate(-108.84 409.78) rotate(-47.5)"/><ellipse class="cls-3" cx="411.43" cy="328.77" rx="0.81" ry="10.9" transform="translate(-13.96 18.27) rotate(-2.5)"/><ellipse class="cls-3" cx="411.43" cy="328.77" rx="10.9" ry="0.81" transform="translate(-13.96 18.27) rotate(-2.5)"/></g><g id="star-5" data-name="star"><ellipse class="cls-3" cx="405.67" cy="196.91" rx="2.06" ry="27.78" transform="translate(-13.57 362.99) rotate(-47.5)"/><ellipse class="cls-3" cx="405.67" cy="196.91" rx="27.78" ry="2.06" transform="translate(-13.57 362.99) rotate(-47.5)"/><ellipse class="cls-3" cx="405.98" cy="197.19" rx="1.11" ry="14.92" transform="translate(-8.22 17.91) rotate(-2.5)"/><ellipse class="cls-3" cx="405.98" cy="197.19" rx="14.92" ry="1.11" transform="translate(-8.22 17.91) rotate(-2.5)"/></g><g id="star-6" data-name="star"><ellipse class="cls-3" cx="63.65" cy="76.54" rx="1.5" ry="20.3" transform="translate(-35.78 71.76) rotate(-47.5)"/><ellipse class="cls-3" cx="63.65" cy="76.54" rx="20.3" ry="1.5" transform="translate(-35.78 71.76) rotate(-47.5)"/><ellipse class="cls-3" cx="63.88" cy="76.75" rx="0.81" ry="10.9" transform="translate(-3.29 2.86) rotate(-2.5)"/><ellipse class="cls-3" cx="63.88" cy="76.75" rx="10.9" ry="0.81" transform="translate(-3.29 2.86) rotate(-2.5)"/></g><g id="star-7" data-name="star"><ellipse class="cls-3" cx="528.88" cy="268.72" rx="1.5" ry="20.3" transform="translate(-26.54 477.13) rotate(-47.5)"/><ellipse class="cls-3" cx="528.88" cy="268.72" rx="20.3" ry="1.5" transform="translate(-26.54 477.13) rotate(-47.5)"/><ellipse class="cls-3" cx="529.11" cy="268.93" rx="0.81" ry="10.9" transform="translate(-11.23 23.35) rotate(-2.5)"/><ellipse class="cls-3" cx="529.11" cy="268.93" rx="10.9" ry="0.81" transform="translate(-11.23 23.35) rotate(-2.5)"/></g><g id="star-8" data-name="star"><ellipse class="cls-3" cx="10.93" cy="224.44" rx="1.1" ry="14.79" transform="translate(-161.94 80.88) rotate(-47.5)"/><ellipse class="cls-3" cx="10.93" cy="224.44" rx="14.79" ry="1.1" transform="translate(-161.94 80.88) rotate(-47.5)"/><ellipse class="cls-3" cx="11.1" cy="224.6" rx="0.59" ry="7.94" transform="translate(-9.79 0.7) rotate(-2.5)"/><ellipse class="cls-3" cx="11.1" cy="224.6" rx="7.94" ry="0.59" transform="translate(-9.79 0.7) rotate(-2.5)"/></g><circle class="cls-3" cx="81.14" cy="178.74" r="4.82"/><circle class="cls-3" cx="392.44" cy="116.17" r="3.9"/><circle class="cls-3" cx="59.33" cy="299.31" r="2.33"/><circle class="cls-3" cx="504.91" cy="190.6" r="1.39"/></g><g id="cube"><g class="cls-4"><polygon class="cls-5" points="336.67 173.69 337.87 267.58 239.78 257.27 238.59 163.38 336.67 173.69"/><polygon class="cls-6" points="238.59 163.38 239.78 257.27 213.14 299.28 211.95 205.38 238.59 163.38"/><polygon class="cls-5" points="310.03 215.69 311.23 309.59 213.14 299.28 211.95 205.38 310.03 215.69"/><polygon class="cls-6" points="336.67 173.69 337.87 267.58 311.23 309.59 310.03 215.69 336.67 173.69"/><path class="cls-7" d="M238.08,163l99.46,10.46-27,42.59L211.07,205.6ZM310,215.69l26.64-42-98.08-10.31-26.64,42L310,215.69"/><polygon class="cls-7" points="336.67 173.69 310.03 215.69 211.95 205.38 238.59 163.38 336.67 173.69"/><polygon class="cls-5" points="310.53 216.06 311.73 309.95 212.27 299.5 211.07 205.6 310.53 216.06"/><polygon class="cls-6" points="337.54 173.47 338.74 267.36 311.73 309.95 310.53 216.06 337.54 173.47"/></g><g id="icon"><path class="cls-8" d="M260.06,198.17a11.68,11.68,0,0,1-3.32.16l-21.54-2.07a5.35,5.35,0,0,1-3.61-1.49,2.06,2.06,0,0,1,.07-2.73l9.25-12.58a7.67,7.67,0,0,1,3.71-2.39,12.61,12.61,0,0,1,5.16-.64l21.54,2.08a5.39,5.39,0,0,1,3.61,1.48,2.09,2.09,0,0,1-.07,2.74l-9.26,12.58a7.58,7.58,0,0,1-3.7,2.38A11.57,11.57,0,0,1,260.06,198.17Zm-2.41-1.09a8.26,8.26,0,0,0,3.39-.41,5,5,0,0,0,2.42-1.57l9.26-12.58a1.35,1.35,0,0,0,0-1.79,3.46,3.46,0,0,0-2.36-1l-21.54-2.08a8.42,8.42,0,0,0-3.38.42,5,5,0,0,0-2.43,1.56l-9.25,12.58a1.37,1.37,0,0,0-.05,1.8,3.55,3.55,0,0,0,2.36,1Z"/><g id="Waves"><path class="cls-8" d="M239.1,188.86a2.31,2.31,0,0,1,2.5-.62,3.77,3.77,0,0,1,2,1.75c.51,1.11.2,2.28-.94,3.48a2.16,2.16,0,0,1-1.52.61,1.23,1.23,0,0,1-1.23-.44.36.36,0,0,1,0-.22,1,1,0,0,1,.26-.42c1.13-1.23,1-2.51-.48-3.29-.27-.15-.58-.28-.64-.46A.51.51,0,0,1,239.1,188.86Z"/><path class="cls-8" d="M261.33,187.35c.45,2.39-.24,4.84-2.12,7.34a2.34,2.34,0,0,1-2.07.68c-.69-.1-1-.5-.64-.93a10.18,10.18,0,0,0,1.73-3.34,6.63,6.63,0,0,0-.1-4.16,9,9,0,0,0-4-4.47c-.48-.3-.34-.8.32-1.14a2.35,2.35,0,0,1,2.08-.07,10.32,10.32,0,0,1,4.05,4.11A8.65,8.65,0,0,1,261.33,187.35Z"/><path class="cls-8" d="M255.36,188.44a7.18,7.18,0,0,1-1.72,5.81,2.17,2.17,0,0,1-1.55.69c-1,.06-1.57-.4-1.15-.95a7.68,7.68,0,0,0,1.38-2.63c.67-2.59-.35-4.76-3.12-6.47-.29-.18-.41-.4-.26-.68a1.57,1.57,0,0,1,1.1-.68,2,2,0,0,1,1.49.1,9.21,9.21,0,0,1,2.56,2.15A6.06,6.06,0,0,1,255.36,188.44Z"/><path class="cls-8" d="M249.4,189.52a5.21,5.21,0,0,1-1.36,4.31,2.37,2.37,0,0,1-2.06.65c-.7-.11-1-.52-.6-1a4.92,4.92,0,0,0,1.08-2.12q.48-2.49-2.26-4.1c-.3-.18-.45-.39-.32-.67a1.6,1.6,0,0,1,1.16-.73,2.09,2.09,0,0,1,1.45.11,6.62,6.62,0,0,1,2.19,1.88A4.44,4.44,0,0,1,249.4,189.52Z"/></g></g><g id="QR_-_https:_a.wisertag.com_demo" data-name="QR - https://a.wisertag.com/demo"><path class="cls-9" d="M275.56,263.5l.06,6,15.71,1.66,0,3-2.92-.31.07,6.15,3.05.33-.05-.06.06,6-3-.32.06,6.17,3.07.32-.05,0,0,3.08.05-.05-12.61-1.33,0,3-3.11-.33,0-2.9-3.15-.34,0-3,12.41,1.31-.06-6.05-6.11-.65,0,2.9-9.49-1,0,3-3.25-.35,0,3.14,0-.05-9.43-1,0-2.9-6.32-.67.06,5.84-3.09-.33-.17-15,9.38,1,0-.05,0,3.13,3.24.35,0,2.84,6.12.65,0-3-3.06-.33-.06-6-3.15-.33.05.05,0-3,6.31.67,0-3.11-.05,0,3.2.29,0,2.95,3,.32,0-2.9-3.06-.33,0-3.12,3.11.33,0-3-12.58-1.33.05.05,0-3,15.78,1.67ZM269.49,281l0,3,3,.32,0-2.91-3.06-.32,0-2.94-3-.32,0,2.89Zm6.32.59,9.32,1-.1-8.86-9.31-1ZM250.67,285l3,.31,0-2.82-3-.31Z"/><path class="cls-9" d="M240.94,265.88l-3.13-.33,0,3-6.32-.67,0-2.89-3.09-.33,0-3,2.93.31-.07-6-6.19-.66.13,12-3-.33L222,251.81l6.11.65,0-3-3-.32,0-3.13-.05,0,6.36.67-.05,0,.07,6.11,15.83,1.68,0-.05,0,3-12.51-1.33,0,2.94,12.45,1.32c0-1.09,0-2,0-3l3.27.35,0-3,0,0,6.36.68-.05-.06,0,3.12-3.16-.34,0,3,0,0-3.2-.34,0,3.08,0,0-9.53-1,0,3.08Z"/><path class="cls-9" d="M300.48,244.89l-21.84-2.31-.23-21.08,21.84,2.32Zm-18.73-5.06,15.55,1.65-.16-15-15.55-1.64Z"/><path class="cls-9" d="M244.27,293.49l-21.84-2.31-.23-21.08,21.85,2.32Zm-3.19-3.41-.16-14.95-15.57-1.65.17,14.95Z"/><path class="cls-9" d="M243.49,217.83l.22,21-21.86-2.31-.23-21Zm-18.57,16,15.56,1.65-.16-15-15.56-1.65Z"/><path class="cls-9" d="M256.3,231.21l3.13.33,0,2.92,6.26.66,0-2.91,3.27.35-.05-.06,0,3,6.31.67.09,9.07,3.21.48.06,6,3.11.34-.06-.06,0,3.09-6.24-.66.05,0,0-2.94-3.2-.34,0,2.94.05,0-3.25-.34,0-3-3.12-.33.05,0,0-3.13-3.1-.33,0-3,9.26,1-.07-6-3-.31L269,241.5l-3.17-.34,0-2.82-3.11-.33,0,2.92-3.14-.34.05.06,0-3.08-3.2-.34.05.05-.07-6.11Z"/><path class="cls-9" d="M240.72,244.7l0-3,9.47,1,0-3.11,0,0,3.2.34,0-3.08-.05,0,3.21.34-.05-.05,0,3.08,3.21.34-.05-.06,0,3.12-6.31-.67,0,3,0,0-6.23-.66,0,3.13,3,.32.06,6,0,0-3.21-.34,0,.05,0-3.11-6.31-.67,0-3,0,0,3.06.33,0-3.08-3.06-.33Z"/><path class="cls-9" d="M275.46,254.4l.07,6.11.05,0-12.73-1.35-.07-6-3.12-.33,0,2.92-3.15-.34.05.06,0-3.13-3.16-.33-.06-6,0,0,3.25.34,0,3,9.42,1-.05,0,.06,6,6.37.67,0-2.94-.05,0,3.2.34Z"/><path class="cls-9" d="M272.17,229.92l-.19-3-9.35-1,0,2.8-3.13-.33-.1-8.88,3,.32.17,2.84,6.17.65,0-2.84,6.3.67.09,9-3-.33Z"/><path class="cls-9" d="M275.53,260.51l3.13.33,0-3,12.59,1.34,0,2.86-3-.32.07,6.05-3.11-.33,0-2.82-3.17-.34-.12,2.82-3-.32,0-3-3.26-.34.05.05,0-3.08Z"/><path class="cls-9" d="M225,246l-3.07-.33-.06-5.94,15.64,1.66,0,3,.05,0-3.24-.34,0,3-3.12-.33.05,0,0-2.94-6.36-.68,0,2.95Z"/><path class="cls-9" d="M291.56,280.4l0-3,6.19.66-.07-6.06-3.08-.33c0-1.09,0-2.07,0-3l0,0,6.26.66.13,12-9.36-1Z"/><path class="cls-9" d="M250.13,239.6l-3.07-.33-.07-6,2.91.3,0-3.05-2.93-.31,0-2.94,9.35,1,0,2.93,0,0-3.2-.34.06,6.11.05,0-3.2-.34,0,3.08Z"/><path class="cls-9" d="M298,293.14l0,3,3.1.32,0,2.95-9.36-1,0-2.94-.05.05,3.21.34,0-3.08-.05,0,3.2.34Z"/><path class="cls-9" d="M288,249.68l.07,6-3-.33-.19-2.86-3.18-.49.06.06c0-2-.05-3.91-.07-5.95l3.12.33,0,3,3.26.35Z"/><path class="cls-9" d="M294.82,289.82l0-2.94,6.17.66.06,5.92-3.07-.32.05.05,0-3.08-3.2-.34Z"/><path class="cls-9" d="M247.19,269.7l3.14.33,0,2.88,3.15.33,0,3-6.24-.66c0-2,0-3.95-.06-5.94Z"/><path class="cls-9" d="M294.56,265.55l-.07-6,6.19.66,0,2.87-3-.31,0,3.05-3.25-.35Z"/><path class="cls-9" d="M266.24,271.6l-6.31-.67,0-3-.05,0,6.32.67,0,3Z"/><path class="cls-9" d="M240.9,265.93l6.26.66c0,1.14,0,2.12,0,3.1l.05,0L241,269c0-1.14,0-2.12,0-3.11Z"/><path class="cls-9" d="M256.7,264.53l-3.2-.34.05.05,0-3.08,0,0,3.16.34,0,3Z"/><path class="cls-9" d="M294.51,265.5l0,3.15,0,0-3-.32,0-3,3.08.32Z"/><path class="cls-9" d="M253.5,264.19l0,2.94-3.11-.33,0-2.94,0,0,3.21.34Z"/><path class="cls-9" d="M259.89,267.9l-3.16-.34,0-3-.05,0,3.21.34-.05-.05,0,3.08Z"/><path class="cls-9" d="M269,232.56l0-3,3.23.34-.06,0c0,.94,0,1.88,0,3l-3.23-.35Z"/><path class="cls-9" d="M294.32,253.48l0,2.82-3-.31,0-2.82Z"/><path class="cls-9" d="M297.5,250.73l3.06.32,0,2.9-3-.32,0-2.94Z"/><path class="cls-9" d="M256.15,222.16l0,2.84-3-.32,0-2.83Z"/><path class="cls-9" d="M249.8,224.38l-2.91-.31,0-2.88,2.91.3Z"/><path class="cls-9" d="M256.86,279.74l0-3L260,277l-.05-.05,0,3-3.15-.33Z"/><path class="cls-9" d="M237.51,244.36l3.21.34-.05,0,0,3.08,0,0-3.15-.33,0-3Z"/><path class="cls-9" d="M297.55,250.69l-3.06-.33,0-2.9,3,.32,0,2.95Z"/><path class="cls-9" d="M288.07,249.73l0-2.94,3,.32,0,2.89-3.07-.32Z"/><path class="cls-9" d="M291.69,292.52l0-3,3.16.33-.05-.05,0,3.08.05,0-3.21-.34Z"/><path class="cls-9" d="M266.41,292.87l3.07.32,0,2.91-3-.32,0-3Z"/><path class="cls-9" d="M279,276l2.92.31,0,2.89-2.92-.31Z"/><path class="cls-9" d="M294.11,238.16l-9.25-1-.1-9,9.25,1Z"/><path class="cls-9" d="M237.91,286.72l-9.26-1-.1-8.92,9.26,1Z"/><path class="cls-9" d="M237.24,223.22l.09,8.89-9.25-1-.1-8.89Z"/></g><path d="M283.63,196.3l-2.49-.26,0-9.85H281l-.29.52c-.57,1-1.12,1.88-1.65,2.7l-4,6-1.84-.19,7.61-11.56,2.46.27.05,9.8h.06c.06-.12.33-.56.8-1.33s.84-1.36,1.12-1.78l4-6.06,1.86.2Z"/><path d="M288.92,196.86l-2-.21,7.61-11.55,7,.74-1,1.6-5-.53-2.38,3.61,4.67.49-1,1.61-4.68-.5Z"/><path d="M308.09,188.09a5.67,5.67,0,0,0-3.51.86,9.67,9.67,0,0,0-3.1,3.08c-.93,1.42-1.32,2.52-1.16,3.32s.86,1.26,2.07,1.38a8,8,0,0,0,1.63,0c.56,0,1.15-.12,1.78-.21l-1.06,1.62a12.06,12.06,0,0,1-3.65.16q-2.73-.28-3.18-2c-.29-1.13.19-2.64,1.44-4.55a13.09,13.09,0,0,1,2.79-3.08,10.44,10.44,0,0,1,3.41-1.85,8.83,8.83,0,0,1,3.62-.39,5.69,5.69,0,0,1,3,1.12l-1.77,1.49a7,7,0,0,0-1-.62A3.86,3.86,0,0,0,308.09,188.09Z"/></g><g id="logo-white"><path class="cls-3" d="M233.54,100.19s1.14,17.63,4.61,17.63c2.83,0,1.68-17.63,6.93-17.63s4,17.61,6.93,17.61c3.2,0,4.75-17.61,4.75-17.61h3.84S259.42,122,252,122c-6.5,0-4.93-15.82-6.93-15.82S244.82,122,238.15,122c-7.43,0-8.58-21.84-8.58-21.84Z"/><path class="cls-3" d="M268.8,94.19a2.41,2.41,0,0,1-4.81,0,2.37,2.37,0,0,1,2.43-2.43A2.3,2.3,0,0,1,268.8,94.19Zm-4.32,27.36V100.19h3.88v21.36Z"/><path class="cls-3" d="M273.64,117.58a10.2,10.2,0,0,0,5.12,1.54c2.83,0,4.15-1.41,4.15-3.17s-1.1-2.87-4-3.93c-3.84-1.37-5.65-3.49-5.65-6,0-3.44,2.78-6.27,7.37-6.27a10.61,10.61,0,0,1,5.25,1.33l-1,2.82a8.31,8.31,0,0,0-4.37-1.23c-2.29,0-3.57,1.32-3.57,2.91,0,1.77,1.28,2.56,4.06,3.62,3.71,1.41,5.61,3.27,5.61,6.44,0,3.76-2.92,6.4-8,6.4a12.24,12.24,0,0,1-6-1.45Z"/><path class="cls-3" d="M293.18,111.58c.09,5.25,3.45,7.41,7.33,7.41a14,14,0,0,0,5.91-1.1l.67,2.78A17.3,17.3,0,0,1,300,122c-6.58,0-10.5-4.32-10.5-10.77s3.79-11.52,10-11.52c7,0,8.83,6.14,8.83,10.07a15.78,15.78,0,0,1-.13,1.81Zm11.39-2.78c0-2.48-1-6.32-5.38-6.32-3.93,0-5.65,3.62-6,6.32Z"/><path class="cls-3" d="M312.5,106.85c0-2.51,0-4.67-.18-6.66h3.4l.13,4.19H316A6.41,6.41,0,0,1,322,99.7a4.08,4.08,0,0,1,1.1.14v3.66a5.78,5.78,0,0,0-1.32-.13c-2.74,0-4.68,2.07-5.21,5a10.76,10.76,0,0,0-.18,1.81v11.39H312.5Z"/><path class="cls-3" d="M332.67,94.05v6.14h5.56v3h-5.56v11.52c0,2.64.75,4.15,2.91,4.15a8.63,8.63,0,0,0,2.25-.27l.18,2.91a9.47,9.47,0,0,1-3.44.53,5.4,5.4,0,0,1-4.2-1.63c-1.1-1.15-1.5-3-1.5-5.56V103.15h-3.31v-3h3.31V95.07Z"/><path class="cls-3" d="M354.43,121.55l-.31-2.69H354a8,8,0,0,1-6.54,3.18c-4.32,0-6.53-3.05-6.53-6.14,0-5.16,4.59-8,12.85-7.94v-.44c0-1.77-.49-5-4.86-5a10.64,10.64,0,0,0-5.56,1.59l-.88-2.56a13.2,13.2,0,0,1,7-1.9c6.54,0,8.13,4.46,8.13,8.74v8a29.49,29.49,0,0,0,.35,5.12Zm-.58-10.9c-4.23-.09-9,.66-9,4.81a3.43,3.43,0,0,0,3.66,3.71,5.32,5.32,0,0,0,5.16-3.58,3.8,3.8,0,0,0,.22-1.23Z"/><path class="cls-3" d="M381,100.19c-.09,1.54-.18,3.27-.18,5.87v12.4c0,4.9-1,7.9-3,9.76s-5.07,2.56-7.77,2.56a13.74,13.74,0,0,1-7.1-1.77l1-3a12,12,0,0,0,6.27,1.68c4,0,6.88-2.07,6.88-7.46v-2.38H377a7.6,7.6,0,0,1-6.79,3.57c-5.3,0-9.1-4.5-9.1-10.41,0-7.24,4.73-11.35,9.63-11.35a7.12,7.12,0,0,1,6.66,3.71h.09l.18-3.22Zm-4,8.43a5.76,5.76,0,0,0-.22-1.77,5.6,5.6,0,0,0-5.43-4.1c-3.71,0-6.36,3.13-6.36,8.08,0,4.19,2.12,7.68,6.31,7.68a5.68,5.68,0,0,0,5.39-4,6.75,6.75,0,0,0,.31-2.07Z"/><g id="icon-2" data-name="icon"><path class="cls-3" d="M194.49,141.46a9.14,9.14,0,0,1-4.42-1.15L162.3,124.93a9.14,9.14,0,0,1-3.57-12.43l15.38-27.77a9.14,9.14,0,0,1,12.43-3.57l27.77,15.38A9.14,9.14,0,0,1,217.88,109L202.5,136.74A9.1,9.1,0,0,1,197,141.1,9.22,9.22,0,0,1,194.49,141.46Zm-2.89-3.91a6,6,0,0,0,8.14-2.34l15.38-27.77a6,6,0,0,0-2.34-8.14L185,83.92a6,6,0,0,0-8.14,2.34L161.49,114a6,6,0,0,0,2.34,8.14Z"/><g id="Waves-2" data-name="Waves"><path class="cls-3" d="M169.33,107.87a2,2,0,0,1,3.43-.41,11.33,11.33,0,0,1,2.19,5.41,11.63,11.63,0,0,1-2.11,8.45,2,2,0,0,1-2.16.85,1.94,1.94,0,0,1-1.5-1.69,2.44,2.44,0,0,1,0-.58,2.84,2.84,0,0,1,.45-1,7.74,7.74,0,0,0,.22-8.62,3.47,3.47,0,0,1-.73-1.48A2.22,2.22,0,0,1,169.33,107.87Z"/><path class="cls-3" d="M198.92,114.43a36,36,0,0,1-4.66,17.75,2,2,0,1,1-3.5-1.92,32.15,32.15,0,0,0,0-31.64,2,2,0,0,1,.71-2.74,2,2,0,0,1,2.75.77A34.41,34.41,0,0,1,198.49,109,43.06,43.06,0,0,1,198.92,114.43Z"/><path class="cls-3" d="M190.8,114.41a27.75,27.75,0,0,1-3.75,14,2,2,0,1,1-3.49-1.93,23.11,23.11,0,0,0,2.49-6.07,23.75,23.75,0,0,0-2.44-18,2.07,2.07,0,0,1-.17-1.87,2,2,0,0,1,3.55-.26,26.78,26.78,0,0,1,2.82,6.69A27.8,27.8,0,0,1,190.8,114.41Z"/><path class="cls-3" d="M182.69,114.38a19.87,19.87,0,0,1-2.89,10.38,2,2,0,0,1-2.88.68,2,2,0,0,1-.54-2.73,15.45,15.45,0,0,0,2-4.9,15.68,15.68,0,0,0-1.91-11.53,2.09,2.09,0,0,1-.25-1.86,2,2,0,0,1,3.58-.36,19.63,19.63,0,0,1,2.4,5.84A19.85,19.85,0,0,1,182.69,114.38Z"/></g></g></g></g></g></g></svg>