<svg xmlns="http://www.w3.org/2000/svg" viewBox="0 0 567 317"><defs><style>.cls-1{fill:#25798c;}.cls-2{opacity:0.53;}.cls-3,.cls-4{fill:#fff;}.cls-4{opacity:0.37;}.cls-5{fill:#3f3d56;}.cls-6{fill:#ffb9b9;}.cls-7{fill:#6c63ff;}.cls-8{fill:#ff6584;}.cls-9{opacity:0.1;isolation:isolate;}.cls-10{fill:#2f2e41;}</style></defs><title>login-artwork-mobile</title><g id="Layer_2" data-name="Layer 2"><g id="Mobile"><rect class="cls-1" width="567" height="317"/><g id="Export"><g id="stars" class="cls-2"><g id="star"><ellipse class="cls-3" cx="482.11" cy="54.45" rx="1.5" ry="20.3" transform="translate(116.27 373.13) rotate(-47.5)"/><ellipse class="cls-3" cx="482.11" cy="54.45" rx="20.3" ry="1.5" transform="translate(116.27 373.13) rotate(-47.5)"/><ellipse class="cls-3" cx="482.34" cy="54.66" rx="0.81" ry="10.9" transform="translate(-1.93 21.11) rotate(-2.5)"/><ellipse class="cls-3" cx="482.34" cy="54.66" rx="10.9" ry="0.81" transform="translate(-1.93 21.11) rotate(-2.5)"/></g><g id="star-2" data-name="star"><ellipse class="cls-3" cx="173.61" cy="88.63" rx="1.5" ry="20.3" transform="translate(-9.02 156.76) rotate(-47.5)"/><ellipse class="cls-3" cx="173.61" cy="88.63" rx="20.3" ry="1.5" transform="translate(-9.02 156.76) rotate(-47.5)"/><ellipse class="cls-3" cx="173.84" cy="88.84" rx="0.81" ry="10.9" transform="translate(-3.71 7.67) rotate(-2.5)"/><ellipse class="cls-3" cx="173.84" cy="88.84" rx="10.9" ry="0.81" transform="translate(-3.71 7.67) rotate(-2.5)"/></g><g id="star-3" data-name="star"><ellipse class="cls-3" cx="140.93" cy="236.2" rx="2.05" ry="27.64" transform="translate(-128.43 180.54) rotate(-47.5)"/><ellipse class="cls-3" cx="140.93" cy="236.2" rx="27.64" ry="2.05" transform="translate(-128.43 180.54) rotate(-47.5)"/><ellipse class="cls-3" cx="141.24" cy="236.48" rx="1.1" ry="14.84" transform="translate(-10.19 6.39) rotate(-2.5)"/><ellipse class="cls-3" cx="141.24" cy="236.48" rx="14.84" ry="1.1" transform="translate(-10.19 6.39) rotate(-2.5)"/></g><g id="star-4" data-name="star"><ellipse class="cls-3" cx="425.19" cy="283.55" rx="1.5" ry="20.3" transform="translate(-71.12 405.49) rotate(-47.5)"/><ellipse class="cls-3" cx="425.19" cy="283.55" rx="20.3" ry="1.5" transform="translate(-71.12 405.49) rotate(-47.5)"/><ellipse class="cls-3" cx="425.42" cy="283.76" rx="0.81" ry="10.9" transform="translate(-11.98 18.84) rotate(-2.5)"/><ellipse class="cls-3" cx="425.42" cy="283.76" rx="10.9" ry="0.81" transform="translate(-11.98 18.84) rotate(-2.5)"/></g><g id="star-5" data-name="star"><ellipse class="cls-3" cx="419.66" cy="151.9" rx="2.06" ry="27.78" transform="translate(24.16 358.69) rotate(-47.5)"/><ellipse class="cls-3" cx="419.66" cy="151.9" rx="27.78" ry="2.06" transform="translate(24.16 358.69) rotate(-47.5)"/><ellipse class="cls-3" cx="419.97" cy="152.18" rx="1.11" ry="14.92" transform="translate(-6.24 18.48) rotate(-2.5)"/><ellipse class="cls-3" cx="419.97" cy="152.18" rx="14.92" ry="1.11" transform="translate(-6.24 18.48) rotate(-2.5)"/></g><g id="star-6" data-name="star"><ellipse class="cls-3" cx="77.63" cy="31.53" rx="1.5" ry="20.3" transform="translate(1.94 67.47) rotate(-47.5)"/><ellipse class="cls-3" cx="77.63" cy="31.53" rx="20.3" ry="1.5" transform="translate(1.94 67.47) rotate(-47.5)"/><ellipse class="cls-3" cx="77.86" cy="31.74" rx="0.81" ry="10.9" transform="translate(-1.31 3.43) rotate(-2.5)"/><ellipse class="cls-3" cx="77.86" cy="31.74" rx="10.9" ry="0.81" transform="translate(-1.31 3.43) rotate(-2.5)"/></g><g id="star-7" data-name="star"><ellipse class="cls-3" cx="542.87" cy="223.71" rx="1.5" ry="20.3" transform="translate(11.18 472.83) rotate(-47.5)"/><ellipse class="cls-3" cx="542.87" cy="223.71" rx="20.3" ry="1.5" transform="translate(11.18 472.83) rotate(-47.5)"/><ellipse class="cls-3" cx="543.09" cy="223.92" rx="0.81" ry="10.9" transform="translate(-9.26 23.92) rotate(-2.5)"/><ellipse class="cls-3" cx="543.09" cy="223.92" rx="10.9" ry="0.81" transform="translate(-9.26 23.92) rotate(-2.5)"/></g><g id="star-8" data-name="star"><ellipse class="cls-3" cx="24.92" cy="179.43" rx="1.1" ry="14.79" transform="translate(-124.21 76.59) rotate(-47.5)"/><ellipse class="cls-3" cx="24.92" cy="179.43" rx="14.79" ry="1.1" transform="translate(-124.21 76.59) rotate(-47.5)"/><ellipse class="cls-3" cx="25.08" cy="179.58" rx="0.59" ry="7.94" transform="translate(-7.82 1.27) rotate(-2.5)"/><ellipse class="cls-3" cx="25.08" cy="179.58" rx="7.94" ry="0.59" transform="translate(-7.82 1.27) rotate(-2.5)"/></g><circle class="cls-3" cx="95.12" cy="133.73" r="4.82"/><circle class="cls-3" cx="406.42" cy="71.15" r="3.9"/><circle class="cls-3" cx="73.32" cy="254.3" r="2.33"/><circle class="cls-3" cx="518.89" cy="145.58" r="1.39"/></g></g><path class="cls-4" d="M386.09,123.33C374,75.76,332.19,41.42,283.12,40c-25.94-.73-53.23,7.88-73.11,38-35.52,53.82,2.19,91,28.48,108.68a164.76,164.76,0,0,1,34,30.56c17.76,21.07,51.92,47.26,92.61,6.23C394.59,193.75,394.15,155,386.09,123.33Z"/><ellipse class="cls-5" cx="297.73" cy="244.22" rx="127.16" ry="6.43"/><ellipse class="cls-5" cx="375.2" cy="254.84" rx="49.76" ry="2.52"/><ellipse class="cls-5" cx="281.26" cy="261.55" rx="49.76" ry="2.52"/><path class="cls-6" d="M361,137.86s8.45-.12,6.65,2.42-8.79,2.37-8.79,2.37Z"/><path class="cls-7" d="M335,106.52l8.56,11.61L351,127s7.66,8,8.51,9.1,3.37.79,2.83,2.47-1.33,4.5-2.16,4.79-4.76-.21-5-.77-18.61-10.91-25.15-18.36L323.72,120l-.09-7.15Z"/><path class="cls-8" d="M335,106.52l8.56,11.61L351,127s7.66,8,8.51,9.1,3.37.79,2.83,2.47-1.33,4.5-2.16,4.79-4.76-.21-5-.77-18.61-10.91-25.15-18.36L323.72,120l-.09-7.15Z"/><path class="cls-9" d="M335,106.52l8.56,11.61L351,127s7.66,8,8.51,9.1,3.37.79,2.83,2.47-1.33,4.5-2.16,4.79-4.76-.21-5-.77-18.61-10.91-25.15-18.36L323.72,120l-.09-7.15Z"/><path class="cls-10" d="M338.53,101.13l1.78,4.19h1.58L339.65,94.7c0-6.82-3.29-12.58-10.11-12.58h0a8.61,8.61,0,0,0-8.61,8.62v10.42a4.16,4.16,0,0,0,4.16,4.16h12.22Z"/><path class="cls-10" d="M309.61,208.31s-2.52,3.35-2.52,4.19-1.4,1.12-2.23,2-1.68.56-1.12,1.39-7,5.87-7,5.87l-7.27,9.51,2,1.67L297,227l-.84,10.34,7.83,7.27s3.35.56,3.63,0-2.79-6.15-2.79-6.15.28-5,1.95-7a28.39,28.39,0,0,0,2.8-3.91s-.84-1.12,1.11-1.4.56-1.95.56-1.95a5.72,5.72,0,0,1,2.24-.28c1.68,0,9.22-8.11,9.22-8.11Z"/><path class="cls-10" d="M340.91,217s-1.12,3.91.84,6.15,0,1.68,0,1.68a2.81,2.81,0,0,1-.84,2.51,3.46,3.46,0,0,0-1.12,2.52s-1.4,2.79-1.12,4.47.28,10.06.28,10.06h2.8v-7.27l5.59,7.27h14a2.24,2.24,0,0,0-1.68-1.68c-1.39-.28-5.59,0-6.42-5.86,0,0-.28-3.36-.84-3.92a4.4,4.4,0,0,1-.56-3.91c.56-1.4,0-2,.84-2.52a2.57,2.57,0,0,0,.56-3.07c-.56-.84-2.24-2.24-.28-3.07s1.95-5,1.95-5Z"/><path class="cls-10" d="M322.46,149.9s-3.07,2.51.84,12.85,5.59,23.76,5.59,23.76-3.91,3.35-3.91,5-17.33,12.3-16.21,17.05,21.52,13.69,23.47,13.13,11.46-27.39,11.46-27.39-3.63-29.62-3.91-29.9-8.66-14-8.66-14l-5-10.34Z"/><path class="cls-9" d="M322.46,149.9s-3.07,2.51.84,12.85,5.59,23.76,5.59,23.76-3.91,3.35-3.91,5-17.33,12.3-16.21,17.05,21.52,13.69,23.47,13.13,11.46-27.39,11.46-27.39-3.63-29.62-3.91-29.9-8.66-14-8.66-14l-5-10.34Z"/><path class="cls-10" d="M322.18,143.47A22.12,22.12,0,0,0,325.26,160c5.31,8.38,11.46,25.71,11.46,25.71s5.87,18.17,3.35,31.3c0,0-.84,1.68,1.4,1.68s25.71-.56,23.75-6.43S354.6,179,354.6,179l-11.18-27.67-.56-8.38-4.19-6.43H330Z"/><path class="cls-6" d="M283.09,151.85s-8.46,0-6.62,2.52,8.82,2.23,8.82,2.23Z"/><path class="cls-6" d="M327.35,94.14s.56,3.91-1.39,4.47,7.82,4.75,7.82,4.75,2-6.7,2.8-7.54S327.35,94.14,327.35,94.14Z"/><path class="cls-9" d="M327.35,94.14s.56,3.91-1.39,4.47,7.82,4.75,7.82,4.75,2-6.7,2.8-7.54S327.35,94.14,327.35,94.14Z"/><path class="cls-8" d="M335.18,100.57s-8.66-2.52-8.94-3.35-2.24,1.11-3.08,2.51-2.51,3.08-3.35,3.08-7,3.63-8.39,10.06a13.09,13.09,0,0,1-2.39,5.64,5.39,5.39,0,0,0-1.09,2.8.27.27,0,0,1-.15.22c-.56.28,11.74,12,11.74,12s4.75-1.12,5.59,0-.56,3.07-1.4,4.19-2.79,6.71-1.68,7.55,7-7.55,10.34-5.87a8.78,8.78,0,0,0,6.71.28s1.4,4.47,3.63,4.47,2.8-3.64,2-4.75-4.19-3.36-2.51-6.43,2.23-8.66,2.23-8.66,4.47-5.32-3.63-11.74c0,0-2.8-7.83-3.63-8.39s-2.24-.84-2.24-1.39S335.18,100.57,335.18,100.57Z"/><path class="cls-8" d="M308.63,120.13l-8.39,11.74L293,140.81s-7.55,8.11-8.39,9.23-3.35.84-2.79,2.51,1.4,4.47,2.23,4.75,4.76-.28,5-.83,18.44-11.18,24.87-18.73l6.16-4.31v-7.15Z"/><path class="cls-10" d="M325.56,133.85l16.2.52a.71.71,0,0,1,.69.7v.26a.7.7,0,0,1-.71.7h0l-16.2-.78a.69.69,0,0,1-.67-.7h0a.7.7,0,0,1,.7-.7Z"/><ellipse class="cls-10" cx="342.17" cy="135.36" rx="0.28" ry="1.54"/><circle class="cls-6" cx="332.94" cy="90.79" r="7.83"/><path class="cls-10" d="M336.21,82.5a32.38,32.38,0,0,0-5.63-.38,9.65,9.65,0,0,0-9.65,9.65h0l-3.64,13.55h7.07l1.32-5,1.86,5h3.56l.31-3,1.2,3h4c-3-6.72-4.55-12.84-.65-16.63,2.63.36,4.86-.34,5.22-1.77C341.56,85.27,339.36,83.29,336.21,82.5Z"/><path class="cls-3" d="M179.76,130.36a3.92,3.92,0,0,1-3.93-3.9,4,4,0,0,1,.52-2c5-8.38,20.1-28,53.13-28,14.31,0,26.86,3.8,37.28,11.29a63.31,63.31,0,0,1,15.68,16.46,3.88,3.88,0,0,1-1,5.4l0,0a4,4,0,0,1-5.48-1c-4.16-6-16.8-24.37-46.45-24.37-28.95,0-42,16.88-46.31,24.12a3.86,3.86,0,0,1-3.41,2Z"/><path class="cls-3" d="M246.11,207.05a4,4,0,0,1-1-.11c-23.95-6-32.89-30.21-33.26-31.22l-.05-.22c-.2-.7-5-17.3,2.37-27,3.38-4.44,8.53-6.71,15.32-6.71,6.31,0,10.87,2,14,6.1,2.57,3.35,3.61,7.49,4.61,11.48,2.1,8.3,3.61,12.66,12.33,13.11a9,9,0,0,0,7.77-4c3.85-5.25,4.52-13.83,1.62-21.38-3.75-9.78-17-28.19-40.36-28.19A41,41,0,0,0,203,128.21a43,43,0,0,0-13.25,19.51c-4.31,13.64,1.34,35.07,1.4,35.27a3.89,3.89,0,0,1-2.76,4.74h0a4,4,0,0,1-4.83-2.77c-.26-1-6.29-23.84-1.32-39.6a49.68,49.68,0,0,1,79.07-22.75,54.54,54.54,0,0,1,15.93,21.63C281,154.31,280,165.6,274.56,173A16.73,16.73,0,0,1,260,180.19c-14.93-.75-17.61-11.29-19.57-19-2-7.89-3.29-11.69-11-11.69-4.22,0-7.18,1.18-9,3.61-2.51,3.33-2.71,8.52-2.43,12.3v.11a31.86,31.86,0,0,0,4.25,13.62c3.88,6.69,11.75,16.94,24.81,20.22a3.9,3.9,0,0,1,2.86,4.69v0a4,4,0,0,1-3.83,2.93Z"/><path class="cls-3" d="M215.37,205.26a4,4,0,0,1-2.88-1.23c-9.59-10.17-15-21.55-17.05-35.77v-.08c-1.15-9.42.53-22.75,8.75-31.92,6.06-6.76,14.59-10.2,25.29-10.2,12.66,0,22.61,5.95,28.81,17.19a48.14,48.14,0,0,1,5.43,16.62,4,4,0,0,1-7.86.82,40.36,40.36,0,0,0-4.61-13.89c-4.81-8.58-12.13-12.94-21.8-12.94-8.35,0-14.89,2.54-19.39,7.57-6.49,7.24-7.75,18.39-6.85,25.77a55.12,55.12,0,0,0,15,31.52,3.88,3.88,0,0,1-.15,5.47l0,0A3.93,3.93,0,0,1,215.37,205.26Z"/><circle class="cls-3" cx="229.54" cy="163.73" r="5.03"/></g></g></svg>