<svg xmlns="http://www.w3.org/2000/svg" viewBox="0 0 378 567"><defs><style>.cls-1{fill:#25798c;}.cls-2{opacity:0.53;}.cls-3,.cls-4{fill:#fff;}.cls-4{opacity:0.37;}.cls-5{fill:#3f3d56;}.cls-6{fill:#ffb9b9;}.cls-7{fill:#6c63ff;}.cls-8{fill:#ff6584;}.cls-9{opacity:0.1;isolation:isolate;}.cls-10{fill:#2f2e41;}</style></defs><title>login-artwork</title><g id="Layer_2" data-name="Layer 2"><g id="Desktop"><path class="cls-1" d="M378,567V0H0V1.26C0,103.11,93.09,147,52.83,291.88,6,460.43,66.8,468.1,62,567Z"/><g id="stars" class="cls-2"><g id="star"><ellipse class="cls-3" cx="324.05" cy="481.61" rx="20.3" ry="1.5" transform="translate(-249.96 395.17) rotate(-47.5)"/><ellipse class="cls-3" cx="324.05" cy="481.61" rx="1.5" ry="20.3" transform="translate(-249.96 395.17) rotate(-47.5)"/><ellipse class="cls-3" cx="323.84" cy="481.84" rx="10.9" ry="0.81" transform="translate(-20.72 14.6) rotate(-2.5)"/><ellipse class="cls-3" cx="323.84" cy="481.84" rx="0.81" ry="10.9" transform="translate(-20.72 14.6) rotate(-2.5)"/></g><g id="star-2" data-name="star"><ellipse class="cls-3" cx="289.87" cy="173.11" rx="20.3" ry="1.5" transform="translate(-33.59 269.88) rotate(-47.5)"/><ellipse class="cls-3" cx="289.87" cy="173.11" rx="1.5" ry="20.3" transform="translate(-33.59 269.88) rotate(-47.5)"/><ellipse class="cls-3" cx="289.66" cy="173.34" rx="10.9" ry="0.81" transform="translate(-7.29 12.81) rotate(-2.5)"/><ellipse class="cls-3" cx="289.66" cy="173.34" rx="0.81" ry="10.9" transform="translate(-7.29 12.81) rotate(-2.5)"/></g><g id="star-3" data-name="star"><ellipse class="cls-3" cx="142.3" cy="140.43" rx="27.64" ry="2.05" transform="translate(-57.37 150.48) rotate(-47.5)"/><ellipse class="cls-3" cx="142.3" cy="140.43" rx="2.05" ry="27.64" transform="translate(-57.37 150.48) rotate(-47.5)"/><ellipse class="cls-3" cx="142.02" cy="140.74" rx="14.84" ry="1.1" transform="translate(-6.01 6.33) rotate(-2.5)"/><ellipse class="cls-3" cx="142.02" cy="140.74" rx="1.1" ry="14.84" transform="translate(-6.01 6.33) rotate(-2.5)"/></g><g id="star-4" data-name="star"><ellipse class="cls-3" cx="94.95" cy="424.69" rx="20.3" ry="1.5" transform="translate(-282.32 207.79) rotate(-47.5)"/><ellipse class="cls-3" cx="94.95" cy="424.69" rx="1.5" ry="20.3" transform="translate(-282.32 207.79) rotate(-47.5)"/><ellipse class="cls-3" cx="94.74" cy="424.92" rx="10.9" ry="0.81" transform="translate(-18.46 4.54) rotate(-2.5)"/><ellipse class="cls-3" cx="94.74" cy="424.92" rx="0.81" ry="10.9" transform="translate(-18.46 4.54) rotate(-2.5)"/></g><g id="star-5" data-name="star"><ellipse class="cls-3" cx="226.6" cy="419.16" rx="27.78" ry="2.06" transform="translate(-235.53 303.06) rotate(-47.5)"/><ellipse class="cls-3" cx="226.6" cy="419.16" rx="2.06" ry="27.78" transform="translate(-235.53 303.06) rotate(-47.5)"/><ellipse class="cls-3" cx="226.32" cy="419.47" rx="14.92" ry="1.11" transform="translate(-18.09 10.28) rotate(-2.5)"/><ellipse class="cls-3" cx="226.32" cy="419.47" rx="1.11" ry="14.92" transform="translate(-18.09 10.28) rotate(-2.5)"/></g><g id="star-6" data-name="star"><ellipse class="cls-3" cx="346.97" cy="77.13" rx="20.3" ry="1.5" transform="translate(55.7 280.85) rotate(-47.5)"/><ellipse class="cls-3" cx="346.97" cy="77.13" rx="1.5" ry="20.3" transform="translate(55.7 280.85) rotate(-47.5)"/><ellipse class="cls-3" cx="346.76" cy="77.36" rx="10.9" ry="0.81" transform="translate(-3.05 15.21) rotate(-2.5)"/><ellipse class="cls-3" cx="346.76" cy="77.36" rx="0.81" ry="10.9" transform="translate(-3.05 15.21) rotate(-2.5)"/></g><g id="star-7" data-name="star"><ellipse class="cls-3" cx="154.79" cy="542.37" rx="20.3" ry="1.5" transform="translate(-349.67 290.09) rotate(-47.5)"/><ellipse class="cls-3" cx="154.79" cy="542.37" rx="1.5" ry="20.3" transform="translate(-349.67 290.09) rotate(-47.5)"/><ellipse class="cls-3" cx="154.58" cy="542.59" rx="10.9" ry="0.81" transform="translate(-23.54 7.26) rotate(-2.5)"/><ellipse class="cls-3" cx="154.58" cy="542.59" rx="0.81" ry="10.9" transform="translate(-23.54 7.26) rotate(-2.5)"/></g><g id="star-8" data-name="star"><ellipse class="cls-3" cx="199.07" cy="24.42" rx="14.79" ry="1.1" transform="translate(46.58 154.69) rotate(-47.5)"/><ellipse class="cls-3" cx="199.07" cy="24.42" rx="1.1" ry="14.79" transform="translate(46.58 154.69) rotate(-47.5)"/><ellipse class="cls-3" cx="198.92" cy="24.58" rx="7.94" ry="0.59" transform="translate(-0.88 8.71) rotate(-2.5)"/><ellipse class="cls-3" cx="198.92" cy="24.58" rx="0.59" ry="7.94" transform="translate(-0.88 8.71) rotate(-2.5)"/></g><circle class="cls-3" cx="244.77" cy="94.63" r="4.82"/><circle class="cls-3" cx="307.35" cy="405.92" r="3.9"/><circle class="cls-3" cx="124.2" cy="72.82" r="2.33"/><circle class="cls-3" cx="232.91" cy="518.39" r="1.39"/></g><path class="cls-4" d="M314.88,251.33c-12.1-47.58-53.9-81.92-103-83.29-25.94-.73-53.24,7.87-73.11,38-35.53,53.81,2.18,91,28.47,108.68a164.22,164.22,0,0,1,34,30.56c17.76,21.07,51.93,47.26,92.61,6.23C323.37,321.75,322.93,283,314.88,251.33Z"/><ellipse class="cls-5" cx="226.51" cy="372.22" rx="127.16" ry="6.43"/><ellipse class="cls-5" cx="303.98" cy="382.84" rx="49.76" ry="2.52"/><ellipse class="cls-5" cx="210.04" cy="389.54" rx="49.76" ry="2.52"/><path class="cls-6" d="M289.78,265.86s8.45-.12,6.65,2.42-8.78,2.36-8.78,2.36Z"/><path class="cls-7" d="M263.78,234.51l8.55,11.62,7.4,8.83s7.66,8,8.52,9.1,3.36.79,2.83,2.48-1.33,4.49-2.17,4.78-4.75-.21-5-.76-18.61-10.91-25.14-18.36L252.51,248l-.1-7.14Z"/><path class="cls-8" d="M263.78,234.51l8.55,11.62,7.4,8.83s7.66,8,8.52,9.1,3.36.79,2.83,2.48-1.33,4.49-2.17,4.78-4.75-.21-5-.76-18.61-10.91-25.14-18.36L252.51,248l-.1-7.14Z"/><path class="cls-9" d="M263.78,234.51l8.55,11.62,7.4,8.83s7.66,8,8.52,9.1,3.36.79,2.83,2.48-1.33,4.49-2.17,4.78-4.75-.21-5-.76-18.61-10.91-25.14-18.36L252.51,248l-.1-7.14Z"/><path class="cls-10" d="M267.32,229.12l1.78,4.2h1.57l-2.23-10.62c0-6.82-3.29-12.58-10.11-12.58h0a8.62,8.62,0,0,0-8.62,8.62v10.41a4.17,4.17,0,0,0,4.16,4.17h12.22Z"/><path class="cls-10" d="M238.39,336.3s-2.51,3.36-2.51,4.2-1.4,1.11-2.24,1.95-1.68.56-1.12,1.4-7,5.87-7,5.87l-7.27,9.5,2,1.68,5.59-5.87L225,365.37l7.82,7.27s3.36.55,3.64,0-2.8-6.15-2.8-6.15.28-5,2-7a28.32,28.32,0,0,0,2.79-3.91s-.84-1.12,1.12-1.4.56-2,.56-2a5.69,5.69,0,0,1,2.23-.28c1.68,0,9.23-8.1,9.23-8.1Z"/><path class="cls-10" d="M269.69,345s-1.11,3.91.84,6.15,0,1.67,0,1.67a2.82,2.82,0,0,1-.84,2.52,3.46,3.46,0,0,0-1.11,2.51s-1.4,2.8-1.12,4.47.28,10.07.28,10.07h2.79v-7.27l5.59,7.27h14a2.24,2.24,0,0,0-1.68-1.68c-1.4-.28-5.59,0-6.43-5.87,0,0-.28-3.35-.84-3.91a4.43,4.43,0,0,1-.56-3.92c.56-1.39,0-2,.84-2.51a2.54,2.54,0,0,0,.56-3.07c-.56-.84-2.24-2.24-.28-3.08s2-5,2-5Z"/><path class="cls-10" d="M251.25,277.89s-3.08,2.52.84,12.86,5.59,23.75,5.59,23.75-3.92,3.36-3.92,5-17.32,12.3-16.21,17.05,21.52,13.7,23.48,13.14,11.46-27.39,11.46-27.39-3.64-29.63-3.91-29.9-8.67-14-8.67-14l-5-10.34Z"/><path class="cls-9" d="M251.25,277.89s-3.08,2.52.84,12.86,5.59,23.75,5.59,23.75-3.92,3.36-3.92,5-17.32,12.3-16.21,17.05,21.52,13.7,23.48,13.14,11.46-27.39,11.46-27.39-3.64-29.63-3.91-29.9-8.67-14-8.67-14l-5-10.34Z"/><path class="cls-10" d="M251,271.46A22.09,22.09,0,0,0,254,288c5.31,8.39,11.46,25.72,11.46,25.72s5.87,18.16,3.35,31.3c0,0-.83,1.67,1.4,1.67s25.71-.55,23.76-6.42S283.39,307,283.39,307l-11.18-27.67-.56-8.38-4.19-6.43h-8.67Z"/><path class="cls-6" d="M211.87,279.85s-8.45,0-6.61,2.51,8.82,2.24,8.82,2.24Z"/><path class="cls-6" d="M256.14,222.14s.56,3.91-1.4,4.47,7.83,4.75,7.83,4.75,1.95-6.71,2.79-7.55S256.14,222.14,256.14,222.14Z"/><path class="cls-9" d="M256.14,222.14s.56,3.91-1.4,4.47,7.83,4.75,7.83,4.75,1.95-6.71,2.79-7.55S256.14,222.14,256.14,222.14Z"/><path class="cls-8" d="M264,228.56s-8.66-2.51-8.94-3.35-2.24,1.12-3.07,2.52-2.52,3.07-3.36,3.07-7,3.63-8.38,10.06a13,13,0,0,1-2.4,5.65,5.37,5.37,0,0,0-1.08,2.79.31.31,0,0,1-.15.23c-.56.27,11.73,12,11.73,12s4.75-1.11,5.59,0-.56,3.08-1.39,4.2-2.8,6.7-1.68,7.54,7-7.54,10.34-5.87a8.73,8.73,0,0,0,6.71.28s1.39,4.47,3.63,4.47,2.79-3.63,2-4.75-4.2-3.35-2.52-6.43,2.24-8.66,2.24-8.66,4.47-5.31-3.64-11.74c0,0-2.79-7.82-3.63-8.38s-2.24-.84-2.24-1.4S264,228.56,264,228.56Z"/><path class="cls-8" d="M237.41,248.13,229,259.87l-7.27,8.94s-7.54,8.1-8.38,9.22-3.36.84-2.8,2.52,1.4,4.47,2.24,4.75,4.75-.28,5-.84,18.45-11.18,24.87-18.72l6.16-4.32v-7.14Z"/><path class="cls-10" d="M254.35,261.84l16.2.52a.7.7,0,0,1,.68.7v.26a.7.7,0,0,1-.7.71h0l-16.2-.78a.71.71,0,0,1-.68-.7h0a.71.71,0,0,1,.71-.71Z"/><ellipse class="cls-10" cx="270.95" cy="263.36" rx="0.28" ry="1.54"/><circle class="cls-6" cx="261.73" cy="218.78" r="7.83"/><path class="cls-10" d="M265,210.49a33.32,33.32,0,0,0-5.64-.37,9.65,9.65,0,0,0-9.65,9.65h0l-3.63,13.55h7.07l1.31-5,1.86,5h3.56l.31-3,1.21,3h4c-3-6.72-4.55-12.85-.65-16.63,2.64.36,4.86-.35,5.22-1.78C270.35,213.27,268.14,211.29,265,210.49Z"/><path class="cls-3" d="M108.55,258.36a3.91,3.91,0,0,1-3.41-5.87c5-8.39,20.09-28,53.13-28,14.3,0,26.85,3.8,37.28,11.29a63.49,63.49,0,0,1,15.68,16.46,3.89,3.89,0,0,1-1,5.4l0,0a4,4,0,0,1-5.48-1c-4.16-6-16.79-24.37-46.44-24.37-29,0-42,16.88-46.31,24.12a3.87,3.87,0,0,1-3.41,2Z"/><path class="cls-3" d="M174.89,335.05a4,4,0,0,1-1-.12c-24-6-32.9-30.21-33.26-31.21l-.06-.23c-.19-.7-5-17.3,2.38-27,3.38-4.45,8.52-6.71,15.31-6.71,6.32,0,10.87,2,14,6.09,2.58,3.36,3.61,7.49,4.62,11.49,2.09,8.3,3.6,12.66,12.32,13.11a9,9,0,0,0,7.77-4c3.86-5.25,4.53-13.83,1.62-21.38-3.74-9.78-17-28.2-40.35-28.2a41,41,0,0,0-26.5,9.33,43.07,43.07,0,0,0-13.25,19.51c-4.3,13.64,1.34,35.08,1.4,35.27a3.87,3.87,0,0,1-2.75,4.74h0a4,4,0,0,1-4.84-2.76c-.25-1-6.29-23.84-1.31-39.61A49.66,49.66,0,0,1,190,250.62,54.47,54.47,0,0,1,206,272.25c3.86,10.06,2.82,21.35-2.62,28.73a16.76,16.76,0,0,1-14.54,7.21c-14.92-.76-17.6-11.29-19.56-19-2-7.88-3.3-11.68-11-11.68-4.22,0-7.19,1.17-9,3.6-2.52,3.33-2.71,8.53-2.43,12.3v.12a31.68,31.68,0,0,0,4.25,13.61c3.88,6.69,11.75,16.95,24.8,20.23a3.87,3.87,0,0,1,2.86,4.68v0a4,4,0,0,1-3.83,2.94Z"/><path class="cls-3" d="M144.15,333.26a4,4,0,0,1-2.88-1.23c-9.58-10.18-15-21.55-17.05-35.78v-.08c-1.14-9.42.54-22.75,8.75-31.92,6.07-6.76,14.59-10.2,25.3-10.2,12.66,0,22.6,6,28.81,17.19a48.39,48.39,0,0,1,5.42,16.63,3.95,3.95,0,0,1-7.85.81A40.43,40.43,0,0,0,180,274.79c-4.81-8.58-12.13-12.94-21.8-12.94-8.36,0-14.9,2.54-19.4,7.57-6.48,7.24-7.74,18.39-6.85,25.77a55.15,55.15,0,0,0,15,31.53,3.86,3.86,0,0,1-.15,5.46l0,0A4,4,0,0,1,144.15,333.26Z"/><circle class="cls-3" cx="158.32" cy="291.73" r="5.03"/></g></g></svg>